<svg width="18" height="20" viewBox="0 0 18 20" fill="none" xmlns="http://www.w3.org/2000/svg">
<path d="M16.7942 5.52L9.82565 0.584746C9.33097 0.234398 8.66903 0.234398 8.17435 0.584746L1.20584 5.52C0.449523 6.05564 0 6.92485 0 7.85162V17.1429C0 18.7208 1.27919 20 2.85714 20H5C5.78898 20 6.42857 19.3604 6.42857 18.5714V16.4286C6.42857 15.6396 7.06817 15 7.85714 15H10.1429C10.9318 15 11.5714 15.6396 11.5714 16.4286V18.5714C11.5714 19.3604 12.211 20 13 20H15.1429C16.7208 20 18 18.7208 18 17.1429V7.85162C18 6.92485 17.5505 6.05564 16.7942 5.52Z" fill="white"/>
</svg>
