<svg width="13" height="3" viewBox="0 0 13 3" fill="none" xmlns="http://www.w3.org/2000/svg">
<path fill-rule="evenodd" clip-rule="evenodd" d="M0.5 1.25C0.5 1.94036 1.05964 2.5 1.75 2.5C2.44036 2.5 3 1.94036 3 1.25C3 0.559644 2.44036 0 1.75 0C1.05964 0 0.5 0.559644 0.5 1.25ZM6.75 2.5C6.05964 2.5 5.5 1.94036 5.5 1.25C5.5 0.559644 6.05964 0 6.75 0C7.44036 0 8 0.559644 8 1.25C8 1.94036 7.44036 2.5 6.75 2.5ZM11.75 2.5C11.0596 2.5 10.5 1.94036 10.5 1.25C10.5 0.559644 11.0596 0 11.75 0C12.4404 0 13 0.559644 13 1.25C13 1.94036 12.4404 2.5 11.75 2.5Z" fill="white"/>
</svg>
