<svg width="40" height="40" viewBox="0 0 40 40" fill="none" xmlns="http://www.w3.org/2000/svg">
<rect x="-7.5" y="-7.5" width="55" height="55" fill="white"/>
<rect x="-4.75" y="-4.75" width="49.5" height="49.5" fill="#7864E6"/>
<mask id="mask0_4798_78" style="mask-type:luminance" maskUnits="userSpaceOnUse" x="-5" y="-5" width="50" height="50">
<rect x="-4.75" y="-4.75" width="49.5" height="49.5" fill="white"/>
</mask>
<g mask="url(#mask0_4798_78)">
<path fill-rule="evenodd" clip-rule="evenodd" d="M38.0075 39.0073C36.5483 36.8965 34.3972 35.3623 31.9263 34.6702L26.1874 33.0625V28.9376C28.6135 27.1152 30.2067 24.2474 30.3046 21.0033C30.6437 21.1528 31.018 21.2375 31.4126 21.2375C32.9313 21.2375 34.1626 20.0063 34.1626 18.4875C34.1626 16.9687 32.9313 15.7375 31.4126 15.7375C31.0211 15.7375 30.6496 15.8204 30.3126 15.9678V15.1875C30.3126 9.49197 25.6955 4.875 20.0001 4.875H19.9999C14.3046 4.875 9.68758 9.49197 9.68758 15.1875V15.9678C9.35043 15.8204 8.97891 15.7375 8.58758 15.7375C7.06876 15.7375 5.83758 16.9687 5.83758 18.4875C5.83758 20.0063 7.06876 21.2375 8.58758 21.2375C8.98207 21.2375 9.35635 21.1529 9.69556 21.0033C9.79332 24.2474 11.3865 27.1152 13.8124 28.9376V33.0625L8.07375 34.6702C5.60287 35.3623 3.45168 36.8965 1.99253 39.0073L-1.99992 44.783L-1.99992 48.875H42.0001V44.783L38.0075 39.0073Z" fill="#F5CDD3"/>
<path fill-rule="evenodd" clip-rule="evenodd" d="M20 31C18.7284 31 17.5112 30.7684 16.3865 30.3475C17.9861 31.3694 19.8858 31.9625 21.925 31.9625C23.4457 31.9625 24.8879 31.6307 26.1875 31.0399V28.9376C24.4639 30.2323 22.3216 31 20 31Z" fill="#F48C9D"/>
<path d="M10.0463 18.8888C10.0813 18.7611 10.1002 18.6265 10.1002 18.4876C10.1002 17.6523 9.42298 16.9751 8.58766 16.9751C8.3788 16.9751 8.17984 17.0174 7.99889 17.0939" stroke="#00004D" stroke-width="0.275" stroke-linecap="round" stroke-linejoin="round"/>
<path d="M29.9539 18.8888C29.9188 18.7611 29.9001 18.6265 29.9001 18.4876C29.9001 17.6523 30.5773 16.9751 31.4126 16.9751C31.6214 16.9751 31.8203 17.0174 32.0014 17.0939" stroke="#00004D" stroke-width="0.275" stroke-linecap="round" stroke-linejoin="round"/>
<path fill-rule="evenodd" clip-rule="evenodd" d="M22.75 24.6763C22.75 26.1951 21.5188 27.4263 20 27.4263C18.4811 27.4263 17.25 26.1951 17.25 24.6763H22.75Z" fill="white"/>
<path fill-rule="evenodd" clip-rule="evenodd" d="M25.6376 18.9C25.6376 19.5075 25.145 20 24.5376 20C23.9301 20 23.4376 19.5075 23.4376 18.9C23.4376 18.2926 23.9301 17.8 24.5376 17.8C25.145 17.8 25.6376 18.2926 25.6376 18.9Z" fill="#00004D"/>
<path fill-rule="evenodd" clip-rule="evenodd" d="M16.5625 18.9C16.5625 19.5075 16.07 20 15.4625 20C14.855 20 14.3625 19.5075 14.3625 18.9C14.3625 18.2926 14.855 17.8 15.4625 17.8C16.07 17.8 16.5625 18.2926 16.5625 18.9Z" fill="#00004D"/>
<path d="M20 17.8L21.375 22.475L19.45 22.75" stroke="#00004D" stroke-width="0.275" stroke-linecap="round" stroke-linejoin="round"/>
<path fill-rule="evenodd" clip-rule="evenodd" d="M29.5102 16.5046C29.9103 16.1207 30.4258 15.8583 31 15.7717V15.1874V10.3367C31 8.25332 29.8229 6.34895 27.9598 5.41725L21.2298 2.05248C20.4556 1.66528 19.5443 1.66528 18.7702 2.05248L12.0403 5.41725C10.1772 6.34895 9.00002 8.25332 9.00002 10.3367V15.7717C9.57422 15.8583 10.0897 16.1207 10.4898 16.5046V16.4449C10.4898 15.0818 11.0974 13.7896 12.1473 12.9202C13.5779 11.7351 15.5831 11.5324 17.222 12.4072C18.958 13.3338 21.042 13.3338 22.7781 12.4072C24.4169 11.5324 26.4221 11.7351 27.8528 12.9202C28.9026 13.7896 29.5102 15.0818 29.5102 16.4449V16.5046Z" fill="#FFCA00"/>
<path fill-rule="evenodd" clip-rule="evenodd" d="M42 44.783L38.0074 39.0073C36.5484 36.8967 34.3972 35.3623 31.9262 34.6701L31.6222 34.5849L30.3924 32.1979C30.0896 31.61 29.5853 31.1511 28.9716 30.9049L26.1875 29.788V33.0955C26.1871 33.0963 26.187 33.0968 26.1865 33.0977L20.0352 39.2491C20.0234 39.2491 20.0118 39.25 20 39.25L13.8125 33.0625V29.7537L11.0284 30.8707C10.4147 31.1168 9.91039 31.5758 9.60761 32.1635L8.35719 34.5906L8.07366 34.6701C5.60279 35.3623 3.4516 36.8967 1.99245 39.0073L-2 44.783V48.875H42V44.783Z" fill="#80C43B"/>
<path d="M8.35722 34.5907L20 41.3294L28.4275 36.4765" stroke="#00004D" stroke-width="0.275" stroke-linecap="round" stroke-linejoin="round"/>
<path fill-rule="evenodd" clip-rule="evenodd" d="M16.8375 46.8294C16.6097 46.8294 16.425 46.6446 16.425 46.4169V39.2708L17.25 39.7377V46.4169C17.25 46.6446 17.0653 46.8294 16.8375 46.8294Z" fill="#00004D"/>
<path fill-rule="evenodd" clip-rule="evenodd" d="M23.1625 43.9419C22.9347 43.9419 22.75 43.7571 22.75 43.5294V39.7458L23.575 39.2708V43.5294C23.575 43.7571 23.3903 43.9419 23.1625 43.9419Z" fill="#00004D"/>
<path d="M12.7125 31.9625L13.8125 33.0625" stroke="#00004D" stroke-width="0.275" stroke-linecap="round" stroke-linejoin="round"/>
<path fill-rule="evenodd" clip-rule="evenodd" d="M26.6041 16.15H22.4791C21.8764 16.15 21.3656 16.5383 21.18 17.0779C21.0038 16.8485 20.728 16.7 20.4166 16.7H19.5188C19.2075 16.7 18.9314 16.8485 18.7556 17.0779C18.5697 16.5383 18.059 16.15 17.4563 16.15H13.3313C12.5719 16.15 11.9563 16.7657 11.9563 17.525V18.4875C11.9563 20.3861 13.4954 21.925 15.3938 21.925C17.2923 21.925 18.8313 20.3861 18.8313 18.4875C18.8313 17.9559 19.2622 17.525 19.7938 17.525H20.1416C20.6731 17.525 21.1041 17.9559 21.1041 18.4875C21.1041 20.3861 22.643 21.925 24.5416 21.925C26.44 21.925 27.9791 20.3861 27.9791 18.4875V17.525C27.9791 16.7657 27.3633 16.15 26.6041 16.15Z" fill="#000066"/>
</g>
</svg>
