<svg width="18" height="21" viewBox="0 0 18 21" fill="none" xmlns="http://www.w3.org/2000/svg">
<path fill-rule="evenodd" clip-rule="evenodd" d="M15.7071 7.29633C15.7071 8.55226 16.039 9.29253 16.7695 10.1456C17.3231 10.7741 17.5 11.5808 17.5 12.456C17.5 13.3302 17.2128 14.1601 16.6373 14.8339C15.884 15.6417 14.8215 16.1573 13.7372 16.247C12.1659 16.3809 10.5937 16.4937 9.0005 16.4937C7.40634 16.4937 5.83505 16.4263 4.26375 16.247C3.17846 16.1573 2.11602 15.6417 1.36367 14.8339C0.78822 14.1601 0.5 13.3302 0.5 12.456C0.5 11.5808 0.677901 10.7741 1.23049 10.1456C1.98384 9.29253 2.29392 8.55226 2.29392 7.29633V6.8703C2.29392 5.18834 2.71333 4.08852 3.577 3.01186C4.86106 1.4417 6.91935 0.5 8.95577 0.5H9.04522C11.1254 0.5 13.2502 1.48702 14.5125 3.12466C15.3314 4.17916 15.7071 5.23265 15.7071 6.8703V7.29633ZM6.07367 18.5608C6.07367 18.0573 6.53582 17.8266 6.96318 17.7279C7.46309 17.6222 10.5093 17.6222 11.0092 17.7279C11.4366 17.8266 11.8987 18.0573 11.8987 18.5608C11.8738 19.0402 11.5926 19.4653 11.204 19.7352C10.7001 20.128 10.1088 20.3767 9.49057 20.4664C9.14868 20.5107 8.81276 20.5117 8.48279 20.4664C7.86362 20.3767 7.27227 20.128 6.76938 19.7342C6.37978 19.4653 6.09852 19.0402 6.07367 18.5608Z" fill="white"/>
</svg>
