<svg width="40" height="40" viewBox="0 0 40 40" fill="none" xmlns="http://www.w3.org/2000/svg">
<rect x="-7.5" y="-7.5" width="55" height="55" fill="white"/>
<rect x="-4.75" y="-4.75" width="49.5" height="49.5" fill="#FFCA00"/>
<mask id="mask0_4798_186" style="mask-type:luminance" maskUnits="userSpaceOnUse" x="-5" y="-5" width="50" height="50">
<rect x="-4.75" y="-4.75" width="49.5" height="49.5" fill="white"/>
</mask>
<g mask="url(#mask0_4798_186)">
<path fill-rule="evenodd" clip-rule="evenodd" d="M38.0075 39.0073C36.5483 36.8965 34.3972 35.3623 31.9263 34.6702L26.1874 33.0625V28.9376C28.6135 27.1152 30.2067 24.2474 30.3046 21.0033C30.6437 21.1528 31.018 21.2375 31.4126 21.2375C32.9313 21.2375 34.1626 20.0063 34.1626 18.4875C34.1626 16.9687 32.9313 15.7375 31.4126 15.7375C31.0211 15.7375 30.6496 15.8204 30.3126 15.9678V15.1875C30.3126 9.49197 25.6955 4.875 20.0001 4.875H19.9999C14.3046 4.875 9.68758 9.49197 9.68758 15.1875V15.9678C9.35043 15.8204 8.97891 15.7375 8.58758 15.7375C7.06876 15.7375 5.83758 16.9687 5.83758 18.4875C5.83758 20.0063 7.06876 21.2375 8.58758 21.2375C8.98207 21.2375 9.35635 21.1529 9.69556 21.0033C9.79332 24.2474 11.3865 27.1152 13.8124 28.9376V33.0625L8.07375 34.6702C5.60287 35.3623 3.45168 36.8965 1.99253 39.0073L-1.99992 44.783L-1.99992 48.875H42.0001V44.783L38.0075 39.0073Z" fill="#B5683C"/>
<path fill-rule="evenodd" clip-rule="evenodd" d="M20 31C18.7284 31 17.5112 30.7684 16.3865 30.3475C17.9861 31.3694 19.8858 31.9625 21.925 31.9625C23.4457 31.9625 24.8879 31.6307 26.1875 31.0399V28.9376C24.4639 30.2323 22.3216 31 20 31Z" fill="#A3420B"/>
<path d="M10.0463 18.8888C10.0813 18.7611 10.1002 18.6265 10.1002 18.4876C10.1002 17.6523 9.42298 16.9751 8.58766 16.9751C8.3788 16.9751 8.17984 17.0174 7.99889 17.0939" stroke="#00004D" stroke-width="0.275" stroke-linecap="round" stroke-linejoin="round"/>
<path d="M29.9539 18.8888C29.9188 18.7611 29.9001 18.6265 29.9001 18.4876C29.9001 17.6523 30.5773 16.9751 31.4126 16.9751C31.6214 16.9751 31.8203 17.0174 32.0014 17.0939" stroke="#00004D" stroke-width="0.275" stroke-linecap="round" stroke-linejoin="round"/>
<path fill-rule="evenodd" clip-rule="evenodd" d="M22.75 24.6763C22.75 26.1951 21.5188 27.4263 20 27.4263C18.4811 27.4263 17.25 26.1951 17.25 24.6763H22.75Z" fill="white"/>
<path d="M23.2313 18.9C23.4434 18.4144 23.928 18.075 24.4919 18.075C25.0557 18.075 25.5403 18.4144 25.7525 18.9" stroke="#00004D" stroke-width="0.275" stroke-linecap="round" stroke-linejoin="round"/>
<path fill-rule="evenodd" clip-rule="evenodd" d="M16.5625 18.9C16.5625 19.5077 16.07 20 15.4625 20C14.855 20 14.3625 19.5077 14.3625 18.9C14.3625 18.2926 14.855 17.8 15.4625 17.8C16.07 17.8 16.5625 18.2926 16.5625 18.9Z" fill="#00004D"/>
<path d="M20 17.8L21.375 22.475L19.45 22.75" stroke="#00004D" stroke-width="0.275" stroke-linecap="round" stroke-linejoin="round"/>
<path fill-rule="evenodd" clip-rule="evenodd" d="M16.7496 10.9855C15.3186 13.4304 13.1525 15.3899 10.5565 16.5698C10.0976 16.0987 9.47132 15.794 8.77378 15.7471L9.135 13.4604V13.4602C9.36517 12.0026 9.88204 10.6405 10.6252 9.43232C11.3116 8.31692 12.1924 7.33517 13.2192 6.53052C13.6205 6.21592 14.0436 5.92772 14.4869 5.67018C15.7316 4.94775 17.1303 4.46183 18.6222 4.27455C19.0735 4.2179 19.5332 4.18738 20 4.18738C22.0095 4.18738 23.8918 4.72899 25.513 5.67018C27.0906 6.58607 28.4201 7.88077 29.3747 9.43232C30.1179 10.6405 30.6348 12.0026 30.865 13.4604L31.2257 15.7444C30.4966 15.7938 29.8468 16.1283 29.3831 16.6361C24.4969 16.2574 20.0881 14.1772 16.7496 10.9855ZM13.8125 28.9341C11.3888 27.1112 9.79324 24.2463 9.69548 21.0032C9.35626 21.1528 8.98199 21.2374 8.5875 21.2374C8.35678 21.2374 8.13416 21.206 7.92008 21.1524L6.25 31.7254H13.8125V28.9341ZM31.4125 21.2374C31.018 21.2374 30.6436 21.1529 30.3044 21.0033C30.2066 24.2463 28.6112 27.1113 26.1875 28.934V31.7254H33.75L32.0799 21.1525C31.8658 21.2059 31.6432 21.2374 31.4125 21.2374Z" fill="#00004D"/>
<path fill-rule="evenodd" clip-rule="evenodd" d="M42 44.783L38.0075 39.0073C36.5484 36.8967 34.3972 35.3623 31.9262 34.6702L29.4881 33.9871C28.7207 38.535 24.766 42 20 42C15.234 42 11.2793 38.535 10.512 33.9871L8.0738 34.6702C5.60279 35.3623 3.4516 36.8967 1.99245 39.0073L-2 44.783V48.875H42V44.783Z" fill="#7864E6"/>
</g>
</svg>
