<svg width="10" height="10" viewBox="0 0 10 10" fill="none" xmlns="http://www.w3.org/2000/svg">
<path fill-rule="evenodd" clip-rule="evenodd" d="M2.81431 0.416626H7.18566C8.01861 0.416626 8.76765 0.987138 9.077 1.85719L9.42441 2.83427C9.52957 3.13005 9.60226 3.44655 9.52556 3.75094C9.3439 4.47185 8.75454 4.99996 8.05554 4.99996C7.21177 4.99996 6.52776 4.23045 6.52776 3.28121C6.52776 4.23045 5.84375 4.99996 4.99998 4.99996C4.15622 4.99996 3.47221 4.23045 3.47221 3.28121C3.47221 4.23045 2.7882 4.99996 1.94443 4.99996C1.24543 4.99996 0.656067 4.47185 0.474409 3.75094C0.397706 3.44655 0.470399 3.13005 0.575562 2.83427L0.92297 1.85719C1.23232 0.987139 1.98136 0.416626 2.81431 0.416626ZM1.33334 5.59601V7.74991C1.33334 8.76244 2.15415 9.58325 3.16667 9.58325H6.83333C7.84585 9.58325 8.66667 8.76244 8.66667 7.74991V5.59603C8.4747 5.65526 8.27012 5.68742 8.05559 5.68742C7.44274 5.68742 6.91456 5.42953 6.52781 5.02558C6.14106 5.42953 5.61288 5.68742 5.00003 5.68742C4.38718 5.68742 3.85901 5.42953 3.47226 5.02558C3.08551 5.42953 2.55733 5.68742 1.94448 5.68742C1.72992 5.68742 1.52532 5.65525 1.33334 5.59601ZM6.67438 7.12271C6.76762 7.28808 6.70914 7.49773 6.54377 7.59097C5.98682 7.90498 5.5071 8.09263 5.00125 8.09361C4.49478 8.09459 4.01412 7.9084 3.45498 7.59032C3.28996 7.49644 3.23229 7.28657 3.32616 7.12156C3.42004 6.95654 3.62991 6.89887 3.79492 6.99274C4.31568 7.28899 4.67092 7.40675 4.99992 7.40611C5.32955 7.40548 5.68488 7.28597 6.20612 6.99209C6.3715 6.89885 6.58115 6.95733 6.67438 7.12271Z" fill="white"/>
</svg>
