<svg width="40" height="40" viewBox="0 0 40 40" fill="none" xmlns="http://www.w3.org/2000/svg">
<rect x="-7.5" y="-7.5" width="55" height="55" fill="white"/>
<rect x="-4.75" y="-4.75" width="49.5" height="49.5" fill="#FD9DAA"/>
<mask id="mask0_4798_212" style="mask-type:luminance" maskUnits="userSpaceOnUse" x="-5" y="-5" width="50" height="50">
<rect x="-4.75" y="-4.75" width="49.5" height="49.5" fill="white"/>
</mask>
<g mask="url(#mask0_4798_212)">
<path fill-rule="evenodd" clip-rule="evenodd" d="M38.0075 39.0073C36.5483 36.8965 34.3972 35.3623 31.9263 34.6702L26.1874 33.0625V28.9376C28.6135 27.1152 30.2067 24.2474 30.3046 21.0033C30.6437 21.1528 31.018 21.2375 31.4126 21.2375C32.9313 21.2375 34.1626 20.0063 34.1626 18.4875C34.1626 16.9687 32.9313 15.7375 31.4126 15.7375C31.0211 15.7375 30.6496 15.8204 30.3126 15.9678V15.1875C30.3126 9.49197 25.6955 4.875 20.0001 4.875H19.9999C14.3046 4.875 9.68758 9.49197 9.68758 15.1875V15.9678C9.35043 15.8204 8.97891 15.7375 8.58758 15.7375C7.06876 15.7375 5.83758 16.9687 5.83758 18.4875C5.83758 20.0063 7.06876 21.2375 8.58758 21.2375C8.98207 21.2375 9.35635 21.1529 9.69556 21.0033C9.79332 24.2474 11.3865 27.1152 13.8124 28.9376V33.0625L8.07375 34.6702C5.60287 35.3623 3.45168 36.8965 1.99253 39.0073L-1.99992 44.783L-1.99992 48.875H42.0001V44.783L38.0075 39.0073Z" fill="#B5683C"/>
<path fill-rule="evenodd" clip-rule="evenodd" d="M20 31C18.7284 31 17.5112 30.7684 16.3865 30.3475C17.9861 31.3694 19.8858 31.9625 21.925 31.9625C23.4457 31.9625 24.8879 31.6307 26.1875 31.0399V28.9376C24.4639 30.2323 22.3216 31 20 31Z" fill="#A3420B"/>
<path d="M10.0463 18.8888C10.0813 18.7611 10.1002 18.6265 10.1002 18.4876C10.1002 17.6523 9.42298 16.9751 8.58767 16.9751C8.3788 16.9751 8.17984 17.0174 7.99889 17.0939" stroke="#00004D" stroke-width="2" stroke-linecap="round" stroke-linejoin="round"/>
<path d="M29.9539 18.8888C29.9188 18.7611 29.9001 18.6265 29.9001 18.4876C29.9001 17.6523 30.5773 16.9751 31.4126 16.9751C31.6214 16.9751 31.8203 17.0174 32.0014 17.0939" stroke="#00004D" stroke-width="2" stroke-linecap="round" stroke-linejoin="round"/>
<path fill-rule="evenodd" clip-rule="evenodd" d="M23.4375 24.6761C23.4375 26.5747 21.8984 28.1136 20 28.1136C18.1015 28.1136 16.5625 26.5747 16.5625 24.6761H23.4375Z" fill="#AE1328"/>
<path fill-rule="evenodd" clip-rule="evenodd" d="M21.9237 27.5253C21.4278 27.0394 20.7492 26.7386 20 26.7386C19.2507 26.7386 18.5722 27.0394 18.0762 27.5253C18.6253 27.8968 19.2872 28.1136 20 28.1136C20.7126 28.1136 21.3748 27.8968 21.9237 27.5253Z" fill="#FB344F"/>
<path fill-rule="evenodd" clip-rule="evenodd" d="M22.0625 25.7761H17.9375C17.5577 25.7761 17.25 25.4684 17.25 25.0886V24.6761H22.75V25.0886C22.75 25.4684 22.4422 25.7761 22.0625 25.7761Z" fill="white"/>
<path fill-rule="evenodd" clip-rule="evenodd" d="M24.5375 19.4402C24.8869 19.4402 25.2106 19.5495 25.4772 19.7348C25.5783 19.5686 25.6375 19.3742 25.6375 19.1652C25.6375 18.5577 25.145 18.0652 24.5375 18.0652C23.93 18.0652 23.4375 18.5577 23.4375 19.1652C23.4375 19.3742 23.4968 19.5686 23.5978 19.7348C23.8645 19.5495 24.1881 19.4402 24.5375 19.4402Z" fill="#00004D"/>
<path fill-rule="evenodd" clip-rule="evenodd" d="M15.4625 19.4402C15.8119 19.4402 16.1356 19.5495 16.4022 19.7348C16.5033 19.5686 16.5625 19.3742 16.5625 19.1652C16.5625 18.5577 16.07 18.0652 15.4625 18.0652C14.855 18.0652 14.3625 18.5577 14.3625 19.1652C14.3625 19.3742 14.4218 19.5686 14.5228 19.7348C14.7895 19.5495 15.1131 19.4402 15.4625 19.4402Z" fill="#00004D"/>
<path d="M20 17.8L21.375 22.475L19.45 22.75" stroke="#00004D" stroke-linecap="round" stroke-linejoin="round"/>
<path fill-rule="evenodd" clip-rule="evenodd" d="M20 12.4853L27.3085 16.7391C29.1685 17.8216 30.1949 19.8111 30.1949 21.9631V22.2383C32.3211 22.2383 34.1625 20.5146 34.1625 18.3883V14.4549C34.1625 11.851 32.9565 9.39357 30.8963 7.80063L26.7288 4.57805C22.7662 1.51386 17.2338 1.51386 13.2712 4.57805L9.10368 7.80063C7.04351 9.39357 5.8375 11.851 5.8375 14.4549V18.3883C5.8375 20.5146 7.67381 22.2383 9.80011 22.2383V21.9631C9.80011 19.8111 10.8315 17.8216 12.6915 16.7391L20 12.4853Z" fill="#F5F5F8"/>
<path d="M20 12.4852L28.0813 7.78162" stroke="#00004D" stroke-linecap="round" stroke-linejoin="round"/>
<path d="M18.0103 6.84692C18.0103 6.84692 8.33757 15.0638 7.02816 16.1867C6.34767 16.7703 5.97504 17.4225 5.97504 18.2986" stroke="#00004D" stroke-linecap="round" stroke-linejoin="round"/>
<path d="M25.1191 9.50598C25.1191 9.50598 31.6624 15.0639 32.9718 16.1868C33.6524 16.7704 34.0249 17.4225 34.0249 18.2987" stroke="#00004D" stroke-linecap="round" stroke-linejoin="round"/>
<path fill-rule="evenodd" clip-rule="evenodd" d="M42 44.783L38.0074 39.0073C36.5484 36.8967 34.3972 35.3623 31.9262 34.6702L26.1875 33.0625C26.1875 36.4798 23.4173 39.25 20 39.25C16.5827 39.25 13.8125 36.4798 13.8125 33.0625L8.07366 34.6702C5.60279 35.3623 3.4516 36.8967 1.99245 39.0073L-2 44.783L-2 48.875H42V44.783Z" fill="#80C43B"/>
<path fill-rule="evenodd" clip-rule="evenodd" d="M22.4154 27.2149L21.3406 27.8388C20.487 28.3343 19.4332 28.3343 18.5796 27.8388L17.5046 27.2149C16.9345 26.884 16.6794 26.195 16.8967 25.5726L17.0814 25.0438C17.1585 24.823 17.3667 24.6749 17.6006 24.6749H22.3194C22.5533 24.6749 22.7616 24.823 22.8386 25.0438L23.0233 25.5726C23.2405 26.195 22.9855 26.884 22.4154 27.2149ZM30.3461 21.0375C29.9589 20.8816 29.617 20.6396 29.3404 20.3358L28.6289 22.6578C28.2407 23.9246 27.2678 24.9278 26.0135 25.3546L24.6905 25.8046L24.1614 24.7614C23.6928 23.8375 22.7448 23.2554 21.7088 23.2554H19.9601H18.2112C17.1753 23.2554 16.2272 23.8375 15.7586 24.7614L15.2295 25.8046L13.9065 25.3546C12.6522 24.9278 11.6793 23.9246 11.2911 22.6578L10.5795 20.3358C10.303 20.6396 9.96106 20.8816 9.57372 21.0376L8.14633 27.8183C7.40314 31.3476 9.03898 34.9506 12.1851 36.7143L18.6152 40.3188C19.4506 40.7872 20.4695 40.7872 21.3047 40.3188L27.7349 36.7143C30.8809 34.9506 32.5167 31.3476 31.7738 27.8183L30.3461 21.0375Z" fill="#00004D"/>
</g>
</svg>
